<?xml version="1.0" encoding="UTF-8"?><!DOCTYPE svg PUBLIC "-//W3C//DTD SVG 1.1//EN" "http://www.w3.org/Graphics/SVG/1.1/DTD/svg11.dtd"><svg xmlns="http://www.w3.org/2000/svg"><symbol id="arrow" viewBox="0 0 6 10"><title>B9E88B08-B9D6-476F-A414-EC2BAB3F9969</title><path d="M1.707 9.707l4-4a1 1 0 0 0 0-1.414l-4-4A1 1 0 1 0 .293 1.707l4 4V4.293l-4 4a1 1 0 0 0 1.414 1.414z" fill-rule="evenodd"/></symbol><symbol id="icon-x" viewBox="0 0 24 24"><path d="M19 4q.43 0 .715.285T20 5q0 .422-.289.711L13.414 12l6.297 6.289Q20 18.578 20 19q0 .43-.285.715T19 20q-.422 0-.711-.289L12 13.414l-6.289 6.297Q5.422 20 5 20q-.43 0-.715-.285T4 19q0-.422.289-.711L10.586 12 4.289 5.711Q4 5.422 4 5q0-.43.285-.715T5 4q.422 0 .711.289L12 10.586l6.289-6.297Q18.578 4 19 4z"/></symbol></svg>